#!OML:ASF F:\VICON\USERDATA\INSTALL\rory3\rory3.ASF
:FULLY-SPECIFIED
:DEGREES
144
root -0.10694905733856831 17.806175513995697 30.070059166897252 3.734878351418286 -2.696700854560288 -3.3248799941608675
lfemur -13.606052216390228 2.985633881946147 -19.289665140744468
ltibia 67.14913251458758
lfoot 4.6945513996215205 -7.924438056012688
ltoes -19.39140013988365
rfemur -20.9282602951344 3.1519979058807834 30.350474413361827
rtibia 88.49157582868551
rfoot 3.2568252375860367 -7.988932659421367
rtoes 3.6094564591628364
lowerback 14.708291831449975 1.9016354905008104 1.7942614430407038
upperback -1.4011753415911414 2.963430455171668 1.2834570557155087
thorax -9.446596940641959 1.416076446167903 -0.9615982313078568
lowerneck -20.680731798718615 -3.9958778614836654 -1.6103418344647047
upperneck 14.679310621485387 -5.635163268955814 2.9595256195924895
head 8.355020203535764 -2.4103567139360402 0.5588135921091866
lclavicle 7.933867047976896e-17 -3.5106937239342634e-16
lhumerus -49.476652261308786 -16.04061433020467 97.87888988087293
lradius 106.96737551243656
lwrist 33.499528917528146
lhand -23.696606459442567 2.11066214692396
lfingers 7.12502
lthumb 2.966905842675412 31.400819664834025
rclavicle 7.933867065832678e-17 -3.5106937226029847e-16
rhumerus -53.87633847041086 8.20768968488833 -95.42072291006511
rradius 109.61332951516711
rwrist -11.305166023331191
rhand -17.655479409319604 42.174770874185434
rfingers 7.12502
rthumb 8.68615085712677 12.580175284726511
145
root -0.156903321425744 17.817131659180728 29.761422094041805 3.701604223401435 -2.540729295718074 -3.2405485209756506
lfemur -13.796579697065052 2.714715372027447 -19.442348884505794
ltibia 67.89087196777629
lfoot 4.8447807147539566 -8.516093887914723
ltoes -21.116209839214985
rfemur -20.143413895947198 3.4114603285379053 30.27756177619776
rtibia 88.3345628863209
rfoot 3.5679936284757545 -8.273913203349991
rtoes 2.782864734177489
lowerback 14.818749936997541 1.8926447086138904 1.5778751723326878
upperback -1.491801533204872 2.993921661424919 1.4452713988094463
thorax -9.574911891613322 1.4432797602796115 -0.82230630696901
lowerneck -20.444975632353152 -4.051144915679148 -1.6138632605393113
upperneck 14.785854567555889 -5.716247744344122 2.925410186800186
head 8.395655091288855 -2.452350709154257 0.5399938232402706
lclavicle 7.933867047804659e-17 -3.5106937239462536e-16
lhumerus -49.578711833376026 -16.19152837694138 97.86819751486887
lradius 106.34140300135944
lwrist 33.41940270750512
lhand -23.694878403554018 2.006439944349391
lfingers 7.12502
lthumb 3.027393544484477 31.589744333090625
rclavicle 7.93386706548863e-17 -3.5106937226285127e-16
rhumerus -54.17288928481457 8.110849370506934 -95.2837818083642
rradius 109.65618066776146
rwrist -11.475789405343159
rhand -17.707425595525475 42.31822977277966
rfingers 7.12502
rthumb 8.676397935554938 12.712861694652428
146
root -0.12905045873822352 17.858152015838826 30.6413855468086 3.743023023059738 -2.4648584600351393 -3.197250624555623
lfemur -13.805289699063763 2.465427486450099 -19.57253141837674
ltibia 68.49957418249359
lfoot 5.6485450916455155 -8.816078770100976
ltoes -20.893274742669746
rfemur -19.251733029230657 3.3387576973999815 30.28219511695183
rtibia 88.19418972571683
rfoot 3.3651836136388917 -8.222294799064755
rtoes 0.7087887809328088
lowerback 14.68730739128291 1.8818669561067165 1.7090041185540648
upperback -1.5397022525596995 2.978244570277684 1.4608662806568546
thorax -9.446339631276716 1.4676485210033094 -0.8556519124888584
lowerneck -20.325532578196846 -4.131687827575893 -1.6263979208488435
upperneck 14.875216036075553 -5.826216691236757 2.901632367212142
head 8.424087586257215 -2.5068584789428696 0.5261643900123985
lclavicle 7.933867047853782e-17 -3.5106937239413464e-16
lhumerus -49.59999121515279 -16.392931468688506 97.8788641804532
lradius 105.69143715737479
lwrist 33.32697943058081
lhand -23.75228262155184 1.7949446121050898
lfingers 7.12502
lthumb 2.798396851635739 31.239677667611353
rclavicle 7.933867065205117e-17 -3.510693722648776e-16
rhumerus -54.50750414047572 7.955124723733569 -95.1492944819694
rradius 109.71095090032311
rwrist -11.445638125285969
rhand -17.757048850098002 42.369424395130544
rfingers 7.12502
rthumb 8.623827348899187 12.689081063828318
147
root -0.11186893904468377 17.882298119818724 30.83757640533363 3.727583340118551 -2.4543307753280903 -3.18303442519274
lfemur -13.84051210799387 2.259333189514467 -19.634567315068995
ltibia 69.04413696323567
lfoot 6.374767063321818 -9.061375203767497
ltoes -20.569073276777388
rfemur -18.40183249462713 3.373766759114134 30.345415210928635
rtibia 88.16533341376348
rfoot 3.175316262688575 -8.133824664838784
rtoes -1.3881075580073592
lowerback 14.57471277377594 1.898714882491697 1.7733510890240463
upperback -1.5625309219565768 3.0097009890438455 1.4620967532846179
thorax -9.328531473465732 1.4835603118044793 -0.8918772703153701
lowerneck -20.16951802395051 -4.206473775926137 -1.6418173397956743
upperneck 14.905486813380316 -5.935259206436596 2.8984983306485543
head 8.438534474359756 -2.559404637629528 0.5216367472631411
lclavicle 7.933867048099542e-17 -3.5106937239234476e-16
lhumerus -49.48359007354059 -16.590057403192276 97.95601048268576
lradius 105.03246828059585
lwrist 33.167378892481224
lhand -23.696587924769577 1.8722397864981737
lfingers 7.12502
lthumb 2.7785735024478644 31.196386058386057
rclavicle 7.933867064884956e-17 -3.510693722675133e-16
rhumerus -54.83558259909347 7.760212360406163 -95.01344160634011
rradius 109.74618665599311
rwrist -11.577013450275285
rhand -17.804512862592077 42.364482580468504
rfingers 7.12502
rthumb 8.651169810637253 12.666497477009454
148
root -0.09297423013307216 17.901844695033443 30.84443629866817 3.735300763140757 -2.412833415079769 -3.190338838573609
lfemur -13.901653388968802 2.0444965982942396 -19.666297323939396
ltibia 69.44394172888431
lfoot 7.253405675322325 -9.136426368160908
ltoes -20.399794095326648
rfemur -17.570165545331268 3.426073105577423 30.452123605554704
rtibia 88.24950464398748
rfoot 2.9757036585027774 -7.996987044759415
rtoes -2.291457023303578
lowerback 14.476882896070201 1.9015276183420036 1.8665069945167139
upperback -1.6573644029666714 3.056765977670805 1.4630676746071534
thorax -9.301003545247609 1.4955535961177744 -0.9983658915094582
lowerneck -20.005784303236226 -4.284201362417889 -1.6776580180294705
upperneck 14.890289783072193 -6.040601836647612 2.902266960112522
head 8.427775693987524 -2.6075656430789342 0.520955097238729
lclavicle 7.933867048430781e-17 -3.5106937238967476e-16
lhumerus -49.306561259212415 -16.727253518436147 98.06101261178725
lradius 104.42236746535858
lwrist 33.21338675369482
lhand -23.84357896803044 1.647187529451267
lfingers 7.12502
lthumb 2.802380486012196 31.36931556719795
rclavicle 7.933867064827832e-17 -3.5106937226783924e-16
rhumerus -55.1180394225738 7.5535188425743796 -94.87047607885025
rradius 109.77736077821699
rwrist -11.489408259717267
rhand -17.836856829655193 42.38319507503003
rfingers 7.12502
rthumb 8.581625266423456 12.50136996929914
149
root -0.06898990917385694 17.912239349908145 30.881406813238605 3.7031523626094045 -2.3674903224316974 -3.1924644423383146
lfemur -13.98522659046958 1.8516818752754496 -19.70415065263539
ltibia 69.76944878514821
lfoot 6.918796486758273 -8.931751539453424
ltoes -22.028465189670506
rfemur -16.75538285253713 3.4325747350811904 30.521710959613873
rtibia 88.40785412982756
rfoot 2.8611606273897907 -7.822915307298947
rtoes -4.558069213951507
lowerback 14.37315412307754 1.9039637082930319 1.9641429843639875
upperback -1.7072503890513775 3.074901677880364 1.4400112499501274
thorax -9.185701167037008 1.5047162430151815 -1.1216728592442626
lowerneck -19.92898805648206 -4.353118366460223 -1.7210749676549277
upperneck 14.871346768025134 -6.137591214612371 2.9168689055261514
head 8.42620468784703 -2.6502297801277197 0.525549966346796
lclavicle 7.933867047868853e-17 -3.510693723938198e-16
lhumerus -49.14493502459924 -16.89748249405612 98.1776750533418
lradius 103.87133247854446
lwrist 33.318037598112944
lhand -23.829830564415666 1.7162587048210836
lfingers 7.12502
lthumb 2.8908989545620587 31.491290806872513
rclavicle 7.9338670642423e-17 -3.5106937227213547e-16
rhumerus -55.38135776689281 7.329972212849416 -94.73826409383031
rradius 109.81481799053805
rwrist -11.478048594251929
rhand -17.86675817452065 42.35495333291187
rfingers 7.12502
rthumb 8.618702949410691 12.439200073964223
150
root -0.06132658230907084 17.91246155374102 30.923304491439183 3.6474864683414716 -2.3663304138708368 -3.1853269367489334
lfemur -14.107954716068393 1.7256650556922501 -19.722963214753822
ltibia 70.02990761205325
lfoot 6.520548872608982 -8.50167338457869
ltoes -23.893504389306315
rfemur -16.013419717022387 3.5461449869067234 30.584024751566353
rtibia 88.60899480522956
rfoot 2.7763304968018385 -7.66462658266395
rtoes -7.115428816096213
lowerback 14.341853998570052 1.9219000023055304 1.9843326010273858
upperback -1.7423513258264725 3.12093937562876 1.4303546829892178
thorax -9.12933944931177 1.5189629970833685 -1.1920233997676923
lowerneck -19.864353809724236 -4.411204949119307 -1.7581829989875832
upperneck 14.79449929587682 -6.2177348270628405 2.928192979128571
head 8.414172536357476 -2.6845152695122816 0.5266757068368757
lclavicle 7.933867048168293e-17 -3.5106937239162616e-16
lhumerus -49.03892201660939 -17.19348694803103 98.27037368727842
lradius 103.3641201861614
lwrist 33.21456865769072
lhand -23.854464738606755 1.7334712279932127
lfingers 7.12502
lthumb 2.8221039618636476 31.418991936549514
rclavicle 7.933867063935662e-17 -3.510693722746302e-16
rhumerus -55.579648362309236 7.095659024146199 -94.5853088790315
rradius 109.82946850115017
rwrist -11.205662613655216
rhand -17.839962477726363 42.30848513859474
rfingers 7.12502
rthumb 8.563926866451006 12.280371510328026
151
root -0.05894390571774366 17.897587164650027 30.88469218218895 3.553250582050881 -2.379416101018797 -3.1515266861931845
lfemur -14.22921089632135 1.6496912213754564 -19.77919291768734
ltibia 70.20691668988545
lfoot 5.984843331995436 -8.269812195707427
ltoes -25.435627576070637
rfemur -15.319416237462768 3.7052315536473577 30.632351596683772
rtibia 88.9587084169782
rfoot 2.683622890747412 -7.59505463566768
rtoes -8.859400289002934
lowerback 14.346713910086322 1.9410611595829366 1.9570488348681134
upperback -1.7576540521318944 3.14976030985803 1.4085014194287806
thorax -9.096635314617025 1.520054302818517 -1.2532131038332464
lowerneck -19.82032970208265 -4.445400794057289 -1.7505027854571307
upperneck 14.67696891841233 -6.262336990941037 2.931973476838431
head 8.378375455693508 -2.704907959419643 0.5282723834630019
lclavicle 7.933867048004679e-17 -3.5106937239291555e-16
lhumerus -48.98358050700634 -17.47821003555621 98.31468068428592
lradius 102.90284056015857
lwrist 33.03972019977717
lhand -23.7789422086556 1.864352277092618
lfingers 7.12502
lthumb 2.8486182189100258 31.468676357081602
rclavicle 7.933867064276471e-17 -3.51069372272044e-16
rhumerus -55.72270142927889 6.883397484390239 -94.44905033353686
rradius 109.8407290800822
rwrist -11.045734939688122
rhand -17.892629145089597 42.13185009261201
rfingers 7.12502
rthumb 8.584977978300243 12.172404102050706
